<svg width="12" height="17" viewBox="0 0 12 17" fill="none" xmlns="http://www.w3.org/2000/svg">
<path d="M9.81834 1.40728C9.12848 0.822806 8.32071 0.404357 7.45386 0.182455C6.58705 -0.0394472 5.68308 -0.0592044 4.80787 0.124626C3.64256 0.367108 2.57344 0.960721 1.73611 1.83015C0.898822 2.69958 0.331091 3.80561 0.104965 5.00799C-0.0601634 5.90947 -0.0301583 6.83743 0.192846 7.72559C0.41585 8.61379 0.826348 9.44035 1.39509 10.1463C1.9229 10.7599 2.22543 11.5445 2.25017 12.3639V14.682C2.25017 15.2967 2.48725 15.8863 2.90924 16.3211C3.33124 16.7558 3.90358 17 4.50037 17H7.50063C8.09742 17 8.66976 16.7558 9.09176 16.3211C9.51375 15.8863 9.75083 15.2967 9.75083 14.682V12.5107C9.776 11.606 10.0987 10.737 10.6659 10.0459C11.6598 8.77925 12.1284 7.15977 11.9697 5.53929C11.8109 3.91884 11.0378 2.42837 9.81834 1.39182V1.40728ZM8.25068 14.682C8.25068 14.8869 8.17166 15.0834 8.03099 15.2283C7.89033 15.3732 7.69955 15.4546 7.50063 15.4546H4.50037C4.30142 15.4546 4.11064 15.3732 3.96997 15.2283C3.82931 15.0834 3.75028 14.8869 3.75028 14.682V13.9093H8.25068V14.682ZM9.50331 9.08775C8.74911 10.0092 8.30912 11.1601 8.25068 12.3639H6.75057V10.0459C6.75057 9.84095 6.67155 9.64438 6.53088 9.49947C6.39022 9.35457 6.19944 9.2732 6.00048 9.2732C5.80156 9.2732 5.61078 9.35457 5.47012 9.49947C5.32945 9.64438 5.25043 9.84095 5.25043 10.0459V12.3639H3.75028C3.73051 11.1802 3.30546 10.0418 2.55018 9.14954C2.05186 8.5345 1.71678 7.79692 1.57759 7.00871C1.43837 6.22053 1.49982 5.40862 1.75592 4.65216C2.01204 3.89574 2.45405 3.22057 3.03886 2.6925C3.62369 2.16443 4.33137 1.8015 5.09291 1.63908C5.74738 1.50026 6.42366 1.51332 7.07262 1.6773C7.72158 1.84129 8.32694 2.15209 8.84477 2.58712C9.36261 3.02215 9.77992 3.57054 10.0664 4.19241C10.3528 4.81431 10.5013 5.49411 10.5009 6.18244C10.5065 7.24092 10.1537 8.26828 9.50331 9.08775Z" fill="#59626D"/>
</svg>
