<svg width="23" height="23" viewBox="0 0 23 23" fill="none" xmlns="http://www.w3.org/2000/svg">
<path d="M1.65675 9.1437C-0.552249 11.355 -0.552249 14.9402 1.65675 17.1514C3.60291 19.0996 6.61441 19.3314 8.81408 17.8468L13.7019 22.7396C14.0487 23.0868 14.6109 23.0868 14.9577 22.7396C15.2729 22.4241 15.3016 21.9304 15.0437 21.5824L14.9577 21.4826L10.1147 16.6335C11.8529 14.4117 11.7 11.1896 9.65619 9.1437C7.44723 6.93243 3.86573 6.93243 1.65675 9.1437ZM16.8299 16.6669C16.571 18.1469 16.2006 19.4904 15.736 20.6373L15.7698 20.6699L15.9129 20.8312C16.1657 21.1702 16.3086 21.548 16.3469 21.9253C18.6939 20.8355 20.6111 18.9742 21.7744 16.6671L16.8299 16.6669ZM11.7726 16.666L14.3953 19.2948C14.6275 18.6052 14.8329 17.837 15.0031 17.0054L15.0697 16.6669L11.7726 16.666ZM8.40051 10.4007C9.91595 11.9177 9.91595 14.3774 8.40051 15.8944C6.88502 17.4114 4.42794 17.4114 2.91247 15.8944C1.39699 14.3774 1.39699 11.9177 2.91247 10.4007C4.42794 8.88368 6.88502 8.88368 8.40051 10.4007ZM15.4473 9.19429L11.1984 9.19335C12.4005 10.8788 12.7508 13.0003 12.2226 14.9425L15.3342 14.9428C15.4641 13.8556 15.5357 12.6973 15.5357 11.4936C15.5357 10.9024 15.5185 10.3222 15.4854 9.75578L15.4473 9.19429ZM17.1778 9.19492C17.2309 9.94212 17.2583 10.7102 17.2583 11.4936C17.2583 12.4471 17.2177 13.3778 17.1396 14.2757L17.0741 14.9427H22.4743C22.8159 13.8539 23 12.6952 23 11.4936C23 10.7062 22.921 9.93718 22.7703 9.19426L17.1778 9.19492ZM14.772 0.46548C15.7834 2.01678 16.5351 4.29241 16.9343 6.96464L17.005 7.47025L22.277 7.4699C21.0812 4.26645 18.499 1.73999 15.2612 0.622104L14.9118 0.50776L14.772 0.46548ZM11.5148 0C10.0486 0 8.57378 2.73861 7.88901 6.71184C8.42204 6.89603 8.93567 7.14857 9.41745 7.4691L15.2593 7.46995C14.6399 3.09117 13.0724 0 11.5148 0ZM8.25761 0.465434C4.79153 1.48964 2.00791 4.10668 0.752527 7.4699L1.89547 7.4691C3.1863 6.61041 4.70538 6.23965 6.19333 6.35682C6.56385 4.2212 7.16547 2.36879 7.94741 0.978102L8.13371 0.661119L8.25761 0.465434Z" fill="#61737D"/>
</svg>
