<svg width="19" height="21" viewBox="0 0 19 21" fill="none" xmlns="http://www.w3.org/2000/svg">
<path d="M18.7517 7.3625C18.4218 7.03442 17.8885 7.03588 17.5604 7.3657L7.43468 17.5462C6.12099 18.8599 3.98736 18.8599 2.67121 17.5444C1.35606 16.2286 1.35606 14.095 2.67137 12.7797L13.0969 2.29943C13.917 1.47929 15.2505 1.47929 16.073 2.3012C16.8953 3.12351 16.8953 4.45679 16.0728 5.27933L7.43626 13.9158C7.43571 13.9164 7.43523 13.917 7.43468 13.9175C7.10565 14.2448 6.57391 14.2443 6.24556 13.916C5.91665 13.5871 5.91665 13.054 6.24556 12.7251L10.4143 8.55541C10.7433 8.22642 10.7432 7.69307 10.4142 7.36416C10.0852 7.03525 9.55188 7.03529 9.22298 7.36428L5.05423 11.5339C4.06747 12.5206 4.06747 14.1204 5.05431 15.1072C6.04111 16.094 7.64087 16.094 8.62771 15.1072C8.62885 15.106 8.62976 15.1048 8.63087 15.1037L17.264 6.4705C18.7445 4.99007 18.7445 2.59011 17.264 1.10968C15.7834 -0.369892 13.3836 -0.369892 11.904 1.10968L1.47854 11.59C-0.493084 13.5616 -0.493084 16.7617 1.47996 18.7357C3.45431 20.709 6.65438 20.709 8.62755 18.7358L18.7549 8.55375C19.083 8.2239 19.0815 7.69058 18.7517 7.3625Z" fill="#63757F"/>
</svg>
